<svg height="2206" width="720" xmlns="http://www.w3.org/2000/svg">
<rect height="2206" fill="#555" width="720"></rect>
<text fill="#7f7" font-family="Courier New" font-size="12" xml:space="preserve">
<tspan x="10" y="26">25 megabytes installed</tspan>
<tspan x="10" y="42"></tspan>
<tspan x="10" y="58">node_modules</tspan>
<tspan x="10" y="74">└─┬ kafka-node@1.6.0 </tspan>
<tspan x="10" y="90">  ├── async@1.5.2 </tspan>
<tspan x="10" y="106">  ├─┬ binary@0.3.0 </tspan>
<tspan x="10" y="122">  │ ├── buffers@0.1.1 </tspan>
<tspan x="10" y="138">  │ └─┬ chainsaw@0.1.0 </tspan>
<tspan x="10" y="154">  │   └── traverse@0.3.9 </tspan>
<tspan x="10" y="170">  ├── buffer-crc32@0.2.13 </tspan>
<tspan x="10" y="186">  ├─┬ buffermaker@1.2.0 </tspan>
<tspan x="10" y="202">  │ └── long@1.1.2 </tspan>
<tspan x="10" y="218">  ├─┬ debug@2.6.3 </tspan>
<tspan x="10" y="234">  │ └── ms@0.7.2 </tspan>
<tspan x="10" y="250">  ├── lodash@4.17.4 </tspan>
<tspan x="10" y="266">  ├─┬ minimatch@3.0.3 </tspan>
<tspan x="10" y="282">  │ └─┬ brace-expansion@1.1.7 </tspan>
<tspan x="10" y="298">  │   ├── balanced-match@0.4.2 </tspan>
<tspan x="10" y="314">  │   └── concat-map@0.0.1 </tspan>
<tspan x="10" y="330">  ├─┬ nested-error-stacks@2.0.0 </tspan>
<tspan x="10" y="346">  │ └── inherits@2.0.3 </tspan>
<tspan x="10" y="362">  ├─┬ node-zookeeper-client@0.2.2 </tspan>
<tspan x="10" y="378">  │ ├── async@0.2.10 </tspan>
<tspan x="10" y="394">  │ └── underscore@1.4.4 </tspan>
<tspan x="10" y="410">  ├── optional@0.1.3 </tspan>
<tspan x="10" y="426">  ├── retry@0.10.1 </tspan>
<tspan x="10" y="442">  ├─┬ snappy@5.0.5 </tspan>
<tspan x="10" y="458">  │ ├── bindings@1.2.1 </tspan>
<tspan x="10" y="474">  │ ├── nan@2.3.5 </tspan>
<tspan x="10" y="490">  │ └─┬ node-gyp@3.4.0 </tspan>
<tspan x="10" y="506">  │   ├── fstream@1.0.11 </tspan>
<tspan x="10" y="522">  │   ├─┬ glob@7.1.1 </tspan>
<tspan x="10" y="538">  │   │ ├── fs.realpath@1.0.0 </tspan>
<tspan x="10" y="554">  │   │ ├─┬ inflight@1.0.6 </tspan>
<tspan x="10" y="570">  │   │ │ └── wrappy@1.0.2 </tspan>
<tspan x="10" y="586">  │   │ ├── once@1.4.0 </tspan>
<tspan x="10" y="602">  │   │ └── path-is-absolute@1.0.1 </tspan>
<tspan x="10" y="618">  │   ├── graceful-fs@4.1.11 </tspan>
<tspan x="10" y="634">  │   ├─┬ mkdirp@0.5.1 </tspan>
<tspan x="10" y="650">  │   │ └── minimist@0.0.8 </tspan>
<tspan x="10" y="666">  │   ├─┬ nopt@3.0.6 </tspan>
<tspan x="10" y="682">  │   │ └── abbrev@1.1.0 </tspan>
<tspan x="10" y="698">  │   ├─┬ npmlog@3.1.2 </tspan>
<tspan x="10" y="714">  │   │ ├─┬ are-we-there-yet@1.1.2 </tspan>
<tspan x="10" y="730">  │   │ │ ├── delegates@1.0.0 </tspan>
<tspan x="10" y="746">  │   │ │ └─┬ readable-stream@2.2.9 </tspan>
<tspan x="10" y="762">  │   │ │   ├── buffer-shims@1.0.0 </tspan>
<tspan x="10" y="778">  │   │ │   ├── core-util-is@1.0.2 </tspan>
<tspan x="10" y="794">  │   │ │   ├── isarray@1.0.0 </tspan>
<tspan x="10" y="810">  │   │ │   ├── process-nextick-args@1.0.7 </tspan>
<tspan x="10" y="826">  │   │ │   ├── string_decoder@1.0.0 </tspan>
<tspan x="10" y="842">  │   │ │   └── util-deprecate@1.0.2 </tspan>
<tspan x="10" y="858">  │   │ ├── console-control-strings@1.1.0 </tspan>
<tspan x="10" y="874">  │   │ ├─┬ gauge@2.6.0 </tspan>
<tspan x="10" y="890">  │   │ │ ├── aproba@1.1.1 </tspan>
<tspan x="10" y="906">  │   │ │ ├── has-color@0.1.7 </tspan>
<tspan x="10" y="922">  │   │ │ ├── has-unicode@2.0.1 </tspan>
<tspan x="10" y="938">  │   │ │ ├── object-assign@4.1.1 </tspan>
<tspan x="10" y="954">  │   │ │ ├── signal-exit@3.0.2 </tspan>
<tspan x="10" y="970">  │   │ │ ├─┬ string-width@1.0.2 </tspan>
<tspan x="10" y="986">  │   │ │ │ ├── code-point-at@1.1.0 </tspan>
<tspan x="10" y="1002">  │   │ │ │ └─┬ is-fullwidth-code-point@1.0.0 </tspan>
<tspan x="10" y="1018">  │   │ │ │   └── number-is-nan@1.0.1 </tspan>
<tspan x="10" y="1034">  │   │ │ ├─┬ strip-ansi@3.0.1 </tspan>
<tspan x="10" y="1050">  │   │ │ │ └── ansi-regex@2.1.1 </tspan>
<tspan x="10" y="1066">  │   │ │ └── wide-align@1.1.0 </tspan>
<tspan x="10" y="1082">  │   │ └── set-blocking@2.0.0 </tspan>
<tspan x="10" y="1098">  │   ├─┬ osenv@0.1.4 </tspan>
<tspan x="10" y="1114">  │   │ ├── os-homedir@1.0.2 </tspan>
<tspan x="10" y="1130">  │   │ └── os-tmpdir@1.0.2 </tspan>
<tspan x="10" y="1146">  │   ├─┬ path-array@1.0.1 </tspan>
<tspan x="10" y="1162">  │   │ └─┬ array-index@1.0.0 </tspan>
<tspan x="10" y="1178">  │   │   └─┬ es6-symbol@3.1.1 </tspan>
<tspan x="10" y="1194">  │   │     ├── d@1.0.0 </tspan>
<tspan x="10" y="1210">  │   │     └─┬ es5-ext@0.10.15 </tspan>
<tspan x="10" y="1226">  │   │       └── es6-iterator@2.0.1 </tspan>
<tspan x="10" y="1242">  │   ├─┬ request@2.81.0 </tspan>
<tspan x="10" y="1258">  │   │ ├── aws-sign2@0.6.0 </tspan>
<tspan x="10" y="1274">  │   │ ├── aws4@1.6.0 </tspan>
<tspan x="10" y="1290">  │   │ ├── caseless@0.12.0 </tspan>
<tspan x="10" y="1306">  │   │ ├─┬ combined-stream@1.0.5 </tspan>
<tspan x="10" y="1322">  │   │ │ └── delayed-stream@1.0.0 </tspan>
<tspan x="10" y="1338">  │   │ ├── extend@3.0.0 </tspan>
<tspan x="10" y="1354">  │   │ ├── forever-agent@0.6.1 </tspan>
<tspan x="10" y="1370">  │   │ ├─┬ form-data@2.1.4 </tspan>
<tspan x="10" y="1386">  │   │ │ └── asynckit@0.4.0 </tspan>
<tspan x="10" y="1402">  │   │ ├─┬ har-validator@4.2.1 </tspan>
<tspan x="10" y="1418">  │   │ │ ├─┬ ajv@4.11.6 </tspan>
<tspan x="10" y="1434">  │   │ │ │ ├── co@4.6.0 </tspan>
<tspan x="10" y="1450">  │   │ │ │ └─┬ json-stable-stringify@1.0.1 </tspan>
<tspan x="10" y="1466">  │   │ │ │   └── jsonify@0.0.0 </tspan>
<tspan x="10" y="1482">  │   │ │ └── har-schema@1.0.5 </tspan>
<tspan x="10" y="1498">  │   │ ├─┬ hawk@3.1.3 </tspan>
<tspan x="10" y="1514">  │   │ │ ├── boom@2.10.1 </tspan>
<tspan x="10" y="1530">  │   │ │ ├── cryptiles@2.0.5 </tspan>
<tspan x="10" y="1546">  │   │ │ ├── hoek@2.16.3 </tspan>
<tspan x="10" y="1562">  │   │ │ └── sntp@1.0.9 </tspan>
<tspan x="10" y="1578">  │   │ ├─┬ http-signature@1.1.1 </tspan>
<tspan x="10" y="1594">  │   │ │ ├── assert-plus@0.2.0 </tspan>
<tspan x="10" y="1610">  │   │ │ ├─┬ jsprim@1.4.0 </tspan>
<tspan x="10" y="1626">  │   │ │ │ ├── assert-plus@1.0.0 </tspan>
<tspan x="10" y="1642">  │   │ │ │ ├── extsprintf@1.0.2 </tspan>
<tspan x="10" y="1658">  │   │ │ │ ├── json-schema@0.2.3 </tspan>
<tspan x="10" y="1674">  │   │ │ │ └── verror@1.3.6 </tspan>
<tspan x="10" y="1690">  │   │ │ └─┬ sshpk@1.11.0 </tspan>
<tspan x="10" y="1706">  │   │ │   ├── asn1@0.2.3 </tspan>
<tspan x="10" y="1722">  │   │ │   ├── assert-plus@1.0.0 </tspan>
<tspan x="10" y="1738">  │   │ │   ├── bcrypt-pbkdf@1.0.1 </tspan>
<tspan x="10" y="1754">  │   │ │   ├─┬ dashdash@1.14.1 </tspan>
<tspan x="10" y="1770">  │   │ │   │ └── assert-plus@1.0.0 </tspan>
<tspan x="10" y="1786">  │   │ │   ├── ecc-jsbn@0.1.1 </tspan>
<tspan x="10" y="1802">  │   │ │   ├─┬ getpass@0.1.6 </tspan>
<tspan x="10" y="1818">  │   │ │   │ └── assert-plus@1.0.0 </tspan>
<tspan x="10" y="1834">  │   │ │   ├── jodid25519@1.0.2 </tspan>
<tspan x="10" y="1850">  │   │ │   ├── jsbn@0.1.1 </tspan>
<tspan x="10" y="1866">  │   │ │   └── tweetnacl@0.14.5 </tspan>
<tspan x="10" y="1882">  │   │ ├── is-typedarray@1.0.0 </tspan>
<tspan x="10" y="1898">  │   │ ├── isstream@0.1.2 </tspan>
<tspan x="10" y="1914">  │   │ ├── json-stringify-safe@5.0.1 </tspan>
<tspan x="10" y="1930">  │   │ ├─┬ mime-types@2.1.15 </tspan>
<tspan x="10" y="1946">  │   │ │ └── mime-db@1.27.0 </tspan>
<tspan x="10" y="1962">  │   │ ├── oauth-sign@0.8.2 </tspan>
<tspan x="10" y="1978">  │   │ ├── performance-now@0.2.0 </tspan>
<tspan x="10" y="1994">  │   │ ├── qs@6.4.0 </tspan>
<tspan x="10" y="2010">  │   │ ├── safe-buffer@5.0.1 </tspan>
<tspan x="10" y="2026">  │   │ ├── stringstream@0.0.5 </tspan>
<tspan x="10" y="2042">  │   │ ├─┬ tough-cookie@2.3.2 </tspan>
<tspan x="10" y="2058">  │   │ │ └── punycode@1.4.1 </tspan>
<tspan x="10" y="2074">  │   │ └── tunnel-agent@0.6.0 </tspan>
<tspan x="10" y="2090">  │   ├── rimraf@2.6.1 </tspan>
<tspan x="10" y="2106">  │   ├── semver@5.3.0 </tspan>
<tspan x="10" y="2122">  │   ├─┬ tar@2.2.1 </tspan>
<tspan x="10" y="2138">  │   │ └── block-stream@0.0.9 </tspan>
<tspan x="10" y="2154">  │   └─┬ which@1.2.14 </tspan>
<tspan x="10" y="2170">  │     └── isexe@2.0.0 </tspan>
<tspan x="10" y="2186">  └── uuid@3.0.1</tspan>
</text>
</svg>
